<svg xmlns="http://www.w3.org/2000/svg" width="588" height="683" fill="none"><path fill="#C2ADAD" fill-rule="evenodd" d="M587.289 376.148c.067-1.212-1.983 14.072-1.983 12.852 0-73.73-121.262-150-273.416-150-143.321 0-260.161 67.671-273.245 137.148A69.4 69.4 0 0 0 37.424 389v.011c-.006 1.109-1.001-14.071-.934-12.863-.04-.943.1.897.282 3.455.277 3.874.653 9.397.653 9.397q.405-.474.813-.947a211 211 0 0 1 8.008-8.75c112.005-115.748 370.57-124.218 511.096-15.211q.484.375.966.753c9.584 7.5 18.611 15.55 26.997 24.155 0 0 2.084-15.223 1.983-12.852" clip-rule="evenodd"/><path fill="#DBD0D0" fill-rule="evenodd" d="M311.89 506c149.637 0 271.41-57.809 275.399-129.852-1.047 24.602-12.952 174.999-148.398 234.323l-246-117.533C228.912 501.311 269.271 506 311.89 506M38.24 388.053a67 67 0 0 1-1.467-8.45 66 66 0 0 1-.282-3.455c.118 2.783.375 7.175.935 12.863V389q.405-.474.813-.947" clip-rule="evenodd"/><path fill="url(#a)" d="M311.89 634.5c51.29 0 93.031-9.15 127.001-24.029l-246-117.533C109.49 473.554 49.343 434.427 38.24 388.053q-.41.473-.814.947v.011c2.835 28.833 13.43 90.955 53.025 145.489 38.97 53.675 106.033 100 221.439 100"/><path fill="#FBD0B0" fill-rule="evenodd" d="M585.306 389a67 67 0 0 0 1.983-12.852c.101-2.371-1.983 12.852-1.983 12.852m-539.06-9.697c112.006-115.748 370.571-124.218 511.097-15.211-122.806-44.971-204.085-18.283-280.819 6.913-70.912 23.284-137.942 45.293-230.277 8.298M37.426 389q.405-.474.813-.947a67 67 0 0 1-1.466-8.45c-.183-2.558-.322-4.398-.282-3.455q.096 1.733.282 3.455c.277 3.874.653 9.397.653 9.397" clip-rule="evenodd"/><path fill="url(#b)" d="M311.89 506c140.625 0 256.642-51.055 273.416-117-8.386-8.605-17.413-16.655-26.997-24.155q-.482-.378-.966-.753c-122.806-44.971-204.085-18.283-280.819 6.913-70.912 23.284-137.942 45.293-230.277 8.298a211 211 0 0 0-8.007 8.75c11.103 46.374 71.25 85.501 154.651 104.885C228.912 501.311 269.271 506 311.89 506"/><path fill="url(#c)" fill-opacity=".49" d="M438.891 610.471C404.921 625.35 363.18 634.5 311.89 634.5c-115.406 0-182.469-46.325-221.439-100 0 0-129.56 46.5-78.56 114s290.64 22.015 427-38.029"/><path stroke="#F2DDDD" stroke-width="12" d="M581.391 372.5c0 33.269-28.018 65.115-77.308 88.999C455.207 485.183 387.264 500 311.891 500S168.575 485.183 119.7 461.499c-49.29-23.884-77.309-55.73-77.309-88.999s28.018-65.115 77.309-88.999C168.575 259.817 236.518 245 311.891 245s143.316 14.817 192.192 38.501c49.29 23.884 77.308 55.73 77.308 88.999Z"/><path fill="#D19E9E" fill-rule="evenodd" d="M305.311 375.018 513.912 4.854 419.62 195.259l-94.292 190.406 8.767 4.663z" clip-rule="evenodd"/><path fill="#B87D7D" d="m513.912 4.854 31.577 19.072-105.697 183.201-105.697 183.201-8.767-4.663 94.292-190.406z"/><path fill="#D19E9E" d="M333.639 436.569c15.842-24.443 11.752-55.232-9.135-68.769s-50.662-4.698-66.504 19.744z"/><path fill="#B87D7D" d="M318.946 375.45c17.602 11.409 22.401 35.036 8.26 56.854l-63.741-41.313c14.142-21.818 37.88-26.949 55.481-15.541"/><defs><linearGradient id="a" x1="241.937" x2="329.349" y1="638.944" y2="553.083" gradientUnits="userSpaceOnUse"><stop stop-color="#CAC2C2"/><stop offset="1" stop-color="#DBD0D0"/></linearGradient><linearGradient id="b" x1="366.687" x2="64.868" y1="493.306" y2="389.689" gradientUnits="userSpaceOnUse"><stop stop-color="#F2BDA8"/><stop offset="1" stop-color="#FBD0B0"/></linearGradient><linearGradient id="c" x1="188.392" x2="-22.108" y1="559" y2="653" gradientUnits="userSpaceOnUse"><stop stop-color="#451F13"/><stop offset="1" stop-color="#451F13" stop-opacity="0"/></linearGradient></defs></svg>