<svg xmlns="http://www.w3.org/2000/svg" width="526" height="387" fill="none"><path fill="#FFDEC1" d="m425.556 114.161.827 23.499 19.378 22.848-17.487 30.954 11.057 15.09L470 191.462l-4-101.248z"/><path fill="#FDF1DD" d="m435 76.335-9.444 37.826L466 90.214l-26.669-73.38-96.988 28.738 22.735 3.844 35.165 31.58z"/><path fill="#DDEBF6" d="m179.673 200.202 4.87 138.524 70.65-33.394-4.568-129.958z"/><path fill="#F3FAFF" d="m54.37 140.832 125.303 59.37 70.952-24.828-130.858-58.869z"/><path fill="#C5DDF0" d="M179.673 200.202 54.37 140.832l4.718 134.195 125.455 63.699z"/><path fill="#3076C0" d="m426.383 137.66-.827-23.499-174.931 61.213 4.568 129.958 174.19-82.331 9.948-16.449-11.057-15.09 17.487-30.954z"/><path fill="#63A0DD" fill-rule="evenodd" d="M425.556 114.161 293.342 51.938l-173.575 64.567 130.858 58.869z" clip-rule="evenodd"/><path fill="#69B5FC" d="m298.601 7.792-5.259 44.146 132.214 62.223L435 76.335l-34.757 4.66-35.165-31.579-22.735-3.844-22.735-3.845z"/><path fill="url(#a)" fill-opacity=".33" d="M184.543 338.726 59.088 275.027 10 289l174.543 91.5L519.5 206.552l-49.5-15.09-30.669 15.09-9.948 16.449-174.19 82.331z"/><path fill="#3369BF" d="M281.122 221.076q-.09-1.52-1.243-1.645-1.122-.175-3.703.786l.329 5.534q1.597-.594 2.566-1.213 1.005-.633 1.545-1.462.573-.879.506-2m1.016 9.494q-.072-1.193-.687-1.63-.617-.436-1.718-.285-1.104.116-3.007.822l.372 6.258q2.65-.984 3.9-2.152 1.247-1.204 1.14-3.013m3.896-6.292q3.277.814 3.475 4.143.085 1.446-.378 2.987-.432 1.492-1.421 2.969-.954 1.464-2.614 2.747-1.662 1.247-3.801 2.042l-7.88 2.931q-2.073.77-3.056-.01-.95-.793-1.122-3.687l-.909-15.302a6.3 6.3 0 0 1 .279-2.322 5.3 5.3 0 0 1 1.2-1.999 5.64 5.64 0 0 1 2.139-1.387l7.778-2.893q3.399-1.227 5.757-.107 2.39 1.07 2.57 4.109a8.6 8.6 0 0 1-.067 1.8 6 6 0 0 1-.364 1.466 7 7 0 0 1-.653 1.278q-.381.586-.933 1.235m27.619-18 .641 10.78q.314 5.281-1.96 8.494-2.243 3.163-7.914 5.273-5.401 2.008-8.094.496-2.66-1.525-2.955-6.481l-.64-10.78q-.114-1.918.868-3.503 1.014-1.633 2.644-2.241 2.004-.744 3.07-.328 1.1.404 1.244 2.828l.701 11.793q.103 1.145.45 1.718.38.561.941.649.558.051 1.407-.265.849-.315 1.38-.735.53-.418.74-.978.244-.571.284-1.067.074-.508.029-1.267l-.703-11.83q-.073-1.228.149-2.163.257-.945.81-1.558a6 6 0 0 1 1.191-.997 9 9 0 0 1 1.52-.713q1.97-.734 3.015-.087t1.182 2.962m19.09 8.245q.123 2.062-.28 3.468-.404 1.371-1.225 2.157-.787.774-2.146 1.279-2.004.745-2.988-.035-.951-.83-1.158-3.711l-.861-13.323-2.887 1.074q-2.139.795-3.27.476-1.095-.331-1.205-2.176-.067-1.121.302-1.925.403-.815 1.237-1.384.833-.605 2.259-1.136l14.537-5.406q1.902-.708 2.794-.3t.997 2.18q.072 1.194-.397 2.071a3.9 3.9 0 0 1-1.237 1.384q-.801.557-2.091 1.037l-3.159 1.174zm25.043-9.314q.123 2.062-.28 3.469-.404 1.37-1.226 2.156-.787.774-2.145 1.279-2.004.745-2.988-.035-.952-.83-1.158-3.711l-.861-13.323-2.887 1.074q-2.14.796-3.27.477-1.095-.333-1.205-2.177-.067-1.122.302-1.924.402-.816 1.237-1.385.831-.605 2.258-1.135l14.538-5.407q1.902-.707 2.794-.3.891.408.997 2.181.071 1.193-.398 2.07a3.86 3.86 0 0 1-1.236 1.384q-.801.557-2.091 1.037l-3.159 1.175zm23.779-18.309q1.8-.67 2.55-.32.785.337.872 1.82.074 1.23-.778 2.101-.819.823-2.653 1.504l-5.502 2.047.228 3.834 7.372-2.705q1.902-.707 2.754-.395.884.262.974 1.782.104 1.737-.841 2.79-.91 1.04-2.88 1.774l-11.005 4.093q-2.004.745-3.022-.023-.986-.816-1.157-3.71l-.908-15.266q-.257-4.341 3.615-5.781l11.004-4.093q1.97-.732 2.96-.435 1.024.285 1.125 1.985.094 1.591-.716 2.559-.779.918-2.681 1.625l-7.404 2.754.251 4.232zm21.732-11.04q-.104-1.736-1.331-1.946t-4.046.84l.371 6.258q2.65-.985 3.866-2.14 1.247-1.204 1.14-3.012m-4.475 14.087q.322 5.426-3.651 6.904-2.004.745-3.022-.022-.986-.817-1.158-3.711l-.907-15.265q-.125-2.099.864-3.575a5.56 5.56 0 0 1 2.752-2.17l7.133-2.653q4.178-1.554 6.884-.416 2.704 1.102 2.897 4.358.147 2.46-.755 4.237-.868 1.728-2.97 3.175 1.636-.498 3.124.576 1.485 1.037 1.625 3.389.141 2.388-.223 3.854-.332 1.417-1.087 2.142-.756.725-2.182 1.256-2.004.744-3.007.23-.971-.563-1.078-2.372-.133-2.243-.612-3.285-.48-1.079-1.148-1.2-.666-.121-1.821.308l-1.866.731z"/><defs><linearGradient id="a" x1="413.537" x2="49.367" y1="179.369" y2="454.861" gradientUnits="userSpaceOnUse"><stop stop-color="#561804"/><stop offset="1" stop-color="#571905" stop-opacity="0"/></linearGradient></defs></svg>