<svg xmlns="http://www.w3.org/2000/svg" width="993" height="594" fill="none"><path fill="url(#a)" fill-opacity=".36" d="M347.336 116.602c-14.275-11.785-28.437-23.476-69.044-15.747-53.683 10.217-69.699 41.484-83.388 68.208-8.157 15.924-15.488 30.236-29.47 37.522-9.636 5.021-25.654 6.167-44.029 7.481C68.373 217.859-4.289 223.057.198 326.879v.002c3.533 81.735 42.33 81.117 78.944 80.533 26.008-.414 50.914-.811 61.296 28.34 7.467 20.968 6.118 41.897 4.862 61.38-.311 4.812-.615 9.536-.78 14.151-1.4 39.244 7.321 70.574 108.743 80.944 98.544 10.077 138.709-24.791 174.267-55.659 22.763-19.761 43.638-37.883 76.732-41.525 34.305-3.774 79.258 12.743 126.082 29.948 68.908 25.32 141.869 52.128 190.908 17.942 49.285-34.356 35.732-69.083 22.055-104.131-9.18-23.522-18.416-47.19-8.75-70.987 9.729-23.954 36.558-34.252 64.915-45.136 41.791-16.04 86.901-33.354 85.496-97.528-1.686-76.998-98.887-85.781-163.608-91.63-25.826-2.334-46.48-4.2-53.83-9.747s-12.553-15.209-18.429-26.124c-14.726-27.35-33.684-62.563-101.283-60.571-51.654 1.522-81.66 21.599-114.492 43.567-27.283 18.255-56.517 37.816-101.745 49.122-52.42 13.104-68.402-.09-84.245-13.168"/><path fill="#E6AA92" d="M356.992 88.781c-14.056-12.005-27.999-23.914-67.982-16.04-52.857 10.408-68.626 42.257-82.105 69.481-8.032 16.221-15.25 30.8-29.016 38.221-9.488 5.115-25.26 6.282-43.352 7.621-52.216 3.864-123.76 9.159-119.342 114.918v.002c3.479 83.261 41.679 82.631 77.729 82.036 25.608-.422 50.131-.827 60.353 28.869 7.352 21.359 6.024 42.679 4.787 62.525-.305 4.902-.605 9.714-.767 14.415-1.379 39.976 7.208 71.891 107.069 82.455 97.028 10.264 136.575-25.254 171.586-56.699 22.413-20.129 42.966-38.589 75.551-42.299 33.777-3.845 78.038 12.981 124.142 30.507 67.848 25.792 139.687 53.1 187.971 18.277 48.526-34.998 35.183-70.372 21.715-106.074-9.038-23.962-18.132-48.071-8.615-72.312 9.579-24.401 35.996-34.891 63.917-45.978 41.147-16.339 85.564-33.976 84.18-99.348-1.66-78.434-97.365-87.382-161.091-93.339-25.428-2.378-45.765-4.279-53.002-9.93s-12.359-15.493-18.145-26.61C738.076 41.616 719.409 5.747 652.85 7.776c-50.858 1.55-80.403 22.002-112.73 44.38-26.863 18.596-55.647 38.521-100.179 50.038-51.614 13.348-67.35-.091-82.949-13.414"/><path fill="#FBD0B0" d="M364.307 81.087c-14.056-12.005-28-23.914-67.982-16.04-52.857 10.407-68.627 42.257-82.106 69.481-8.031 16.221-15.25 30.799-29.016 38.221-9.488 5.115-25.259 6.282-43.351 7.621-52.216 3.864-123.76 9.158-119.342 114.918v.001c3.478 83.261 41.679 82.631 77.728 82.037 25.608-.422 50.131-.827 60.353 28.869 7.353 21.359 6.024 42.678 4.788 62.525-.306 4.902-.606 9.714-.768 14.414-1.378 39.977 7.209 71.891 107.069 82.456 97.029 10.264 136.576-25.255 171.586-56.699 22.413-20.13 42.967-38.59 75.552-42.299 33.777-3.845 78.038 12.98 124.142 30.506 67.848 25.792 139.686 53.101 187.97 18.278 48.527-34.998 35.183-70.373 21.716-106.075-9.039-23.961-18.133-48.07-8.616-72.311 9.58-24.402 35.996-34.891 63.917-45.978 41.148-16.339 85.564-33.976 84.18-99.349-1.66-78.434-97.365-87.381-161.09-93.339-25.429-2.377-45.765-4.278-53.002-9.929-7.238-5.65-12.36-15.493-18.146-26.611C745.39 33.923 726.723-1.946 660.165.082c-50.859 1.55-80.403 22.003-112.731 44.381-26.862 18.595-55.647 38.52-100.179 50.038-51.614 13.348-67.35-.092-82.948-13.414"/><path fill="#FFDDC4" d="M370.3 107.15c-13.246-10.431-26.387-20.779-64.067-13.938-49.814 9.044-64.676 36.717-77.378 60.371-7.569 14.095-14.372 26.762-27.346 33.211-8.941 4.444-23.804 5.458-40.855 6.621-49.209 3.358-116.634 7.958-112.47 99.851v.001c3.279 72.345 39.279 71.797 73.253 71.281 24.133-.367 47.244-.719 56.878 25.083 6.929 18.559 5.677 37.083 4.511 54.328-.288 4.259-.57 8.44-.723 12.524-1.299 34.735 6.793 62.465 100.904 71.644 91.442 8.919 128.712-21.943 161.706-49.264 21.122-17.491 40.493-33.53 71.201-36.753 31.832-3.341 73.545 11.278 116.994 26.506 63.941 22.411 131.643 46.139 177.147 15.881 45.732-30.409 33.157-61.145 20.465-92.166-8.518-20.82-17.088-41.768-8.119-62.831 9.028-21.202 33.923-30.316 60.236-39.95 38.779-14.196 80.637-29.521 79.333-86.322-1.564-68.15-91.758-75.925-151.814-81.101-23.965-2.066-43.131-3.718-49.951-8.627s-11.648-13.462-17.101-23.123c-13.664-24.208-31.255-55.374-93.982-53.611-47.93 1.347-75.773 19.117-106.239 38.562-25.316 16.157-52.443 33.47-94.41 43.477-48.643 11.598-63.473-.08-78.173-11.655"/><path fill="#E6AA92" d="M265.21 227.676q-2.524 1.2-3.059 3.254-.476 2.026 1.31 5.783l3.294 6.927 9.744-4.634-3.349-7.044q-1.173-2.466-2.457-3.654-1.313-1.247-2.621-1.273-1.277-.112-2.862.641m15.141 19.431-9.744 4.633 1.479 3.112q1.423 2.993.508 5.156t-4.789 4.005q-1.644.781-2.924.814t-2.632-.692q-1.293-.753-2.709-2.67-1.385-2.005-3.043-4.887-1.628-2.969-3.833-7.606-1.926-4.05-2.695-7.787-.738-3.824-.446-6.842.351-3.045 1.334-5.672.954-2.685 2.593-4.688 1.697-2.03 3.47-3.449a18.2 18.2 0 0 1 3.858-2.482 19 19 0 0 1 5.207-1.612q2.714-.5 5.961-.028a18.9 18.9 0 0 1 6.239 2.072q3.023 1.513 6.039 4.83 3.016 3.315 5.305 8.129 3.684 7.749 4.884 11.785 1.23 3.95.578 6.059-.594 2.082-3.353 3.393-3.875 1.842-6.129 1.187-2.255-.655-3.679-3.649zM329.671 210.724q-.635-2.32-1.434-3.516-.816-1.26-2.133-1.641a6.1 6.1 0 0 0-2.623-.225q-1.323.092-3.579.709l3.773 13.794q1.756-.48 2.987-1.155a7.7 7.7 0 0 0 2.216-1.752q.923-1.06 1.11-2.594.231-1.614-.317-3.62m-2.788 20.845q1.39 5.078.109 7.787-1.297 2.646-5.184 3.71-3.888 1.063-6.237-.383-2.368-1.508-3.74-6.524l-7.239-26.458q-1.047-3.824.525-6.208 1.554-2.447 4.94-3.374l11.16-3.053q4.075-1.116 7.832-.93 3.74.122 6.797 1.442 3.102 1.24 5.305 3.872 2.248 2.553 3.243 6.189 1.218 4.451-.444 8.478-1.679 3.963-5.433 6.742t-9.021 4.221l-3.573.978zM382.234 198.545q-.405-2.37-1.083-3.639-.689-1.334-1.962-1.841a6.1 6.1 0 0 0-2.588-.482q-1.326-.037-3.632.356l2.406 14.096q1.794-.306 3.084-.856a7.8 7.8 0 0 0 2.378-1.526q1.022-.966 1.358-2.474.389-1.584.039-3.634m-4.815 20.472q.887 5.19-.654 7.761-1.55 2.506-5.523 3.184t-6.169-.991q-2.208-1.734-3.083-6.859l-4.614-27.039q-.667-3.908 1.13-6.128 1.787-2.283 5.246-2.873l11.405-1.947q4.166-.71 7.886-.158 3.71.488 6.623 2.1 2.966 1.538 4.9 4.373 1.988 2.76 2.622 6.477.777 4.548-1.271 8.393-2.058 3.78-6.067 6.179-4.009 2.398-9.391 3.317l-3.652.623zM424.047 222.741q-2.978.28-4.883-.35-1.913-.695-3.048-2.591t-1.526-5.255l-3.166-27.312q-.397-3.421 1.358-5.785 1.748-2.427 5.04-2.809 3.875-.449 5.847.762 2.037 1.203 2.538 5.53l3.002 25.891 11.041-1.28q3.745-.434 5.357.491 1.677.918 2.074 4.341.404 3.486-1.22 4.721-1.623 1.236-5.562 1.692zM486.626 206.205q.606 5.23-1.004 7.707-1.618 2.412-5.492 2.862-3.745.434-5.72-1.366-1.983-1.863-2.647-7.022l-1.277-10.452-11.291-10.47q-3.07-2.784-3.333-5.044-.411-3.552 2.061-5.932 2.358-2.236 4.36-2.469 2.776-.321 5.263 1.942l8.94 8.256 5.696-8.447q2.836-4.32 6.581-4.755 2.776-.321 4.506 1.048 2.954 2.34 3.238 4.794.157 1.357-.567 3.01-.732 1.59-2.456 4.211l-7.981 12.442zM616.264 214.801q-.507 2.815-2.47 4.178-1.952 1.3-5.15.724a7.6 7.6 0 0 1-1.629-.491q-.797-.342-1.664-1.027a40 40 0 0 1-1.427-1.247q-.622-.575-1.549-1.666a30 30 0 0 0-1.398-1.771q-.472-.68-1.533-2.125a115 115 0 0 1-1.532-2.126l-9.714-13.175-2.5 13.882q-.565 3.134-1.987 4.067-1.359.943-3.918.483-2.815-.507-3.928-2.028-1.112-1.522-.571-4.528l5.565-30.898q.657-3.646 2.846-5.168 2.19-1.52 5.643-.898 2.367.426 3.636 1.447 1.345.969 2.983 3.245l13.281 19.035 2.511-13.945q.496-2.751 2.081-3.852 1.66-1.154 4.028-.728 2.75.495 3.736 1.994.984 1.498.466 4.377zM652.89 219.954q2.114.641 4.173-.772 2.121-1.394 3.573-3.942 1.515-2.53 2.458-5.64.962-3.172 1.127-6.179.183-3.068-.768-5.531-.889-2.443-2.942-3.066-1.99-.603-4.087.934-2.096 1.538-3.71 4.173a24.6 24.6 0 0 0-2.558 5.745q-.943 3.11-1.089 6.055-.084 2.963.843 5.282.989 2.337 2.98 2.941m8.991 9.995q-5.65.936-11.808-.932-6.096-1.85-10.274-5.765-4.097-3.96-5.53-9.761t.585-12.456q3.057-10.076 10.882-14.156 7.908-4.122 17.549-1.198t13.926 10.744q4.303 7.758 1.247 17.835-2.019 6.656-6.495 10.664-4.413 4.028-10.082 5.025M722.752 243.693q2.358.929 4.266-1.254 1.932-2.242 4.218-8.049l5.957-14.77q1.262-3.205 3.285-4.085 2.107-.916 5.736.513 2.238.881 3.283 2.131 1.106 1.273 1.239 3.771.134 2.498-.932 6.27t-3.425 9.759q-1.404 3.569-3.224 6.414-1.82 2.847-3.753 4.74a22 22 0 0 1-4.123 3.196q-2.106 1.267-4.155 1.857a20.4 20.4 0 0 1-4.136.746 18.6 18.6 0 0 1-3.9-.208 19 19 0 0 1-3.324-.96q-5.443-2.145-8.501-7.33-5.759 1.853-11.263-.314a18.6 18.6 0 0 1-4.455-2.524q-2.073-1.654-3.886-4.324-1.752-2.646-2.65-5.864-.875-3.279-.512-7.747.447-4.504 2.376-9.403 3.12-7.923 5.442-11.689 2.382-3.742 4.466-4.599 2.144-.832 5.107.335 2.48.977 3.645 2.274 1.19 1.237 1.271 2.806t-.753 3.685l-5.752 14.781q-2.286 5.806-2.403 8.764t2.544 4.006q1.33.523 2.424-.303 1.118-.887 2.337-3.271.594-3.817 3.525-11.257 1.643-4.173 2.801-6.581t2.236-4.079 2.233-2.125a5.04 5.04 0 0 1 2.304-.35q1.231.066 3.106.804a27 27 0 0 1 1.851.799q.823.394 1.43.982.606.59.995 1.021.388.432.55 1.265.161.832.213 1.411t-.196 1.739a14.5 14.5 0 0 1-.46 2.054q-.189.834-.832 2.467-.559 1.596-1.035 2.806-.392 1.173-1.25 3.35-3 7.62-5.216 10.939-.616 2.273-.355 3.563.26 1.29 1.651 1.838"/><path stroke="#FBD0B0" stroke-linecap="round" stroke-width="10" d="M130.5 339.194c-27.89 0-50.5-18.019-50.5-49.5 0-31.48 22.61-71 50.5-71M865.5 156.694c32-5 57.352 7.593 65.5 38.001s-6.56 59.781-33.5 66.999"/><defs><linearGradient id="a" x1="405.5" x2="179" y1="348" y2="578.5" gradientUnits="userSpaceOnUse"><stop stop-color="#54200B"/><stop offset="1" stop-color="#54200C" stop-opacity="0"/></linearGradient></defs></svg>