<svg xmlns="http://www.w3.org/2000/svg" width="169" height="85" fill="none"><path fill="#FFEBDD" d="M8.837 20.39q0 .962.564 1.527.566.565 1.263.565.83 0 1.196-.432.365-.465.365-1.66V8.23q0-2.025.864-2.99.897-.996 2.923-.996 1.794 0 2.824.83t1.03 2.857v12.325q0 3.654-2.226 5.316-2.192 1.66-6.478 1.66-1.362 0-2.525-.199a11.6 11.6 0 0 1-2.06-.531 11.6 11.6 0 0 1-1.66-.83 6.6 6.6 0 0 1-1.263-1.03 11 11 0 0 1-.897-1.163 6.7 6.7 0 0 1-.63-1.263 21 21 0 0 1-.333-1.229 7 7 0 0 1-.1-1.196q0-2.226.731-3.023.765-.83 2.957-.83 1.76 0 2.69.63.964.631.964 1.728 0 .333-.1 1.063t-.1 1.03m26.027 1.96q1.13 0 1.927-.998.83-.996 1.162-2.458.366-1.461.366-3.123 0-1.694-.366-3.189-.365-1.528-1.196-2.591-.797-1.063-1.893-1.063-1.064 0-1.86 1.063-.797 1.063-1.196 2.591a12.6 12.6 0 0 0-.4 3.19q0 1.66.366 3.122.4 1.462 1.196 2.459.83.996 1.894.996m5.88 3.554q-2.624 1.295-5.913 1.295-3.255 0-5.88-1.295-2.592-1.329-4.153-3.954t-1.561-6.179q0-5.382 3.222-8.537 3.255-3.19 8.405-3.19t8.405 3.19q3.255 3.156 3.255 8.537 0 3.555-1.594 6.18-1.561 2.625-4.186 3.953M70.632 8.23v9.9q0 4.85-2.358 6.976Q65.949 27.2 60.4 27.2q-5.282 0-7.773-2.259-2.46-2.259-2.459-6.81v-9.9q0-1.76 1.03-2.857 1.064-1.13 2.658-1.13 1.96 0 2.956.732 1.03.73 1.03 2.956v10.83q.033 1.064.333 1.695.332.631.863.896.532.233 1.362.233t1.362-.2q.533-.199.764-.63.266-.432.333-.864.1-.432.1-1.13V7.898q0-1.13.265-1.894.3-.763.864-1.129.598-.366 1.196-.498.63-.133 1.495-.133 1.927 0 2.89.93t.963 3.056m16.853 2.625q0-1.595-1.162-2.193-1.163-.598-3.92-.598v5.747q2.59 0 3.82-.63 1.262-.666 1.262-2.326m-5.082 11.162q0 4.983-3.887 4.983-1.96 0-2.89-1.03-.897-1.064-.897-3.72V8.23q0-1.927 1.03-2.923 1.062-1.03 2.757-1.03h6.976q4.086 0 6.611 1.927 2.525 1.893 2.525 4.883 0 2.259-.964 3.555-.93 1.262-3.023 1.86 1.595.1 2.957 1.562 1.362 1.428 1.362 3.587 0 2.193-.432 3.389-.398 1.163-1.163 1.561-.764.399-2.159.399-1.96 0-2.89-.797-.897-.83-.897-2.492 0-2.06-.399-3.156-.399-1.13-1.03-1.462-.63-.332-1.76-.332l-1.827.034zm37.696 1.827q0 1.462-.864 2.325-.864.831-2.524.831-.432 0-.864-.1a3.8 3.8 0 0 1-.93-.365q-.465-.266-.831-.498a10 10 0 0 1-.93-.698 15 15 0 0 0-.864-.764q-.298-.3-.963-.93-.664-.632-.964-.93l-6.079-5.748v7.21q0 1.626-.631 2.225-.598.598-1.927.598-1.462 0-2.16-.664-.697-.665-.697-2.226V8.064q0-1.894.963-2.857.964-.963 2.758-.963 1.229 0 1.96.398.763.366 1.794 1.362l8.405 8.372V7.134q0-1.428.697-2.126.731-.73 1.96-.731 1.429 0 2.06.664t.631 2.16zm17.887-10.332q1.761 0 2.459.565.73.565.731 1.927 0 1.129-.864 1.628-.831.465-2.625.465h-5.381v3.521l7.209.034q1.86 0 2.657.564.831.532.831 1.927 0 1.594-.964 2.226-.93.63-2.857.631h-10.763q-1.96 0-2.89-1.03-.897-1.064-.897-3.72V8.23q0-3.986 3.787-3.986h10.763q1.927 0 2.857.598.964.597.964 2.16 0 1.46-.831 2.059-.797.564-2.657.565h-7.243v3.886zm22.287 8.505q0 2.69-.963 3.854-.963 1.13-2.957 1.129-1.926 0-2.823-1.03-.897-1.064-.931-3.72l-.033-5.382-5.116-5.98q-1.395-1.595-1.395-2.757 0-1.827 1.395-2.89 1.329-.997 2.359-.997 1.428 0 2.558 1.295l4.053 4.718 3.388-3.954q1.695-2.026 3.621-2.026 1.43 0 2.226.797 1.362 1.362 1.362 2.625 0 .697-.465 1.495-.465.763-1.495 1.993l-4.784 5.847zM32.964 59.797q0 3.693-1.322 5.289-1.322 1.55-4.012 1.55-2.645 0-3.876-1.413-1.23-1.46-1.23-5.107l-.046-5.152h-9.301v4.833q0 3.738-1.277 5.289t-4.058 1.55q-2.645 0-3.875-1.413-1.231-1.46-1.231-5.107l-.137-19.24q0-2.827 1.413-4.15 1.46-1.322 3.83-1.322 2.736 0 4.012 1.003 1.323 1.004 1.323 4.058v7.66h9.255v-7.25q0-1.915.684-3.145.729-1.277 1.824-1.779 1.14-.546 2.69-.547 2.644 0 3.967 1.003 1.367 1.004 1.367 4.058zm18.934-16.961q-1.96 0-2.918 1.14-.912 1.14-.912 4.058v5.38h7.569v-5.471q0-1.915-.456-3.055-.456-1.185-1.277-1.596-.774-.456-2.006-.456m3.739 16.87h-7.569v2.416q0 2.325-1.23 3.42-1.232 1.095-4.24 1.094-1.278 0-2.098-.365t-1.46-1.23q-.591-.867-.911-2.508a50 50 0 0 1-.456-4.013q-.137-2.37-.137-5.973 0-3.146.639-5.744.684-2.645 1.778-4.468a16.8 16.8 0 0 1 2.553-3.192q1.413-1.413 3.055-2.189 1.686-.774 3.237-1.14a12.8 12.8 0 0 1 3.191-.41q1.916 0 3.785.547 1.869.502 3.784 1.779a13.3 13.3 0 0 1 3.328 3.191q1.46 1.87 2.371 4.879.912 3.009.912 6.748 0 6.017-.456 8.936-.41 2.872-1.459 4.012-1.003 1.14-3.146 1.14-3.01 0-4.24-1.094t-1.231-3.42zM89.6 43.976q0-.958-.82-1.642-.775-.684-1.87-.684-2.189 0-3.601 2.508-1.414 2.462-1.414 5.608 0 2.416.912 4.377a7.4 7.4 0 0 0 2.644 3.055q1.733 1.14 4.013 1.14A8.4 8.4 0 0 0 92.7 57.7q1.55-.684 2.508-1.46a17 17 0 0 1 1.96-1.458q1.05-.684 1.824-.684 1.003 0 1.732.82.73.775.73 1.642 0 .957-.593 2.234-.547 1.276-1.778 2.736a18.5 18.5 0 0 1-2.872 2.644q-1.642 1.185-4.104 2.006a16.6 16.6 0 0 1-5.106.775q-3.557 0-6.611-1.049-3.01-1.094-5.244-3.054-2.235-2.007-3.51-5.016-1.278-3.009-1.277-6.747 0-7.387 4.422-11.673 4.424-4.285 11.581-4.285 3.648 0 6.748 1.23 3.101 1.231 4.924 3.42t1.824 4.788q0 3.01-2.006 5.47-2.006 2.418-5.198 2.417-1.824 0-3.282-1.003-1.46-1.003-1.46-2.872 0-.867.821-2.417.867-1.55.867-2.188m38.263 7.66q2.326.273 4.24 2.37 1.915 2.052 1.915 5.29 0 3.145-.456 4.696-.456 1.505-1.55 2.097-1.094.547-3.328.547-1.779 0-2.964-.501-1.14-.502-1.687-1.46-.547-1.003-.547-2.553 0-2.006-.182-3.328-.137-1.368-.411-2.143-.228-.821-.729-1.231-.502-.41-1.003-.502-.456-.136-1.277-.136h-2.416v5.06q0 3.648-1.414 5.244-1.413 1.55-4.149 1.55-2.644 0-3.921-1.459-1.231-1.505-1.231-5.015V41.149q0-2.872 1.049-4.286 1.093-1.459 3.51-1.459 1.414 0 2.326.183.957.183 1.823.683.912.456 1.323 1.505.456 1.003.456 2.599 0 1.413-.046 3.191v2.463q0 .593.274 1.003.318.41.911.684.639.227 1.551.227 1.96 0 2.599-1.55.683-1.55.683-6.337 0-2.37 1.277-3.511 1.276-1.14 4.104-1.14 3.054 0 4.103 1.186t1.049 4.24q0 5.015-1.779 7.796-1.732 2.736-4.103 3.01m23.621-16.551q5.426 0 9.256 2.234t3.83 4.742q0 .684-.319 1.185a1.76 1.76 0 0 1-.73.684 2.2 2.2 0 0 1-.912.183q-.82 0-2.462-.821a42 42 0 0 0-3.647-1.687q-2.007-.867-3.694-.866-2.69 0-2.69 2.188 0 .684.411 1.322.456.593 1.413 1.277.958.638 1.87 1.14.91.501 2.507 1.368a59 59 0 0 1 2.69 1.459q3.511 2.006 4.924 3.83 1.414 1.823 1.414 4.194 0 9.438-12.721 9.438-2.508 0-4.878-.501-2.326-.502-4.104-1.323a19 19 0 0 1-3.1-1.823q-1.323-1.004-2.006-2.052-.684-1.05-.684-1.96 0-1.005.638-1.688.683-.73 1.961-.73.957 0 4.604 1.232 3.648 1.185 5.882 1.185 2.052 0 2.052-1.413a1.44 1.44 0 0 0-.183-.73q-.136-.364-.547-.683a3.8 3.8 0 0 0-.866-.639 13 13 0 0 0-1.322-.775 86 86 0 0 0-1.687-.912q-.82-.456-2.189-1.185-1.368-.73-2.644-1.46a11.1 11.1 0 0 1-2.918-2.37q-1.185-1.414-1.733-2.781-.547-1.414-.547-2.6 0-3.829 3.42-6.245t9.711-2.417M132.197 82.95q.014-1.095.438-1.846.438-.753 1.217-1.41a22 22 0 0 1 1.355-1.039q.943-.684 1.326-1.026.616-.547.616-1.162 0-.56-.315-.89-.314-.328-.902-.328-.67 0-1.013.424-.41.464-.424 1.382h-2.161q0-1.505.643-2.38.89-1.286 3.009-1.286 1.627 0 2.544.848.93.848.931 2.148 0 .888-.411 1.504-.41.615-1.149 1.19-.246.192-1.19.876-.93.67-1.313 1.08v.014h4.076v1.901zm12.187-1.587q1.764 0 1.764-3.09 0-1.437-.437-2.271-.424-.835-1.327-.835t-1.341.835q-.437.82-.437 2.27t.437 2.27q.438.822 1.341.822m-.014 1.806q-1.846 0-2.995-1.34-1.136-1.341-1.136-3.557 0-2.23 1.136-3.556 1.149-1.34 3.009-1.34 1.887 0 3.009 1.34 1.135 1.327 1.135 3.556t-1.149 3.57q-1.136 1.327-3.009 1.327m4.645-.219q.014-1.095.437-1.846.438-.753 1.218-1.41.41-.355 1.354-1.039.943-.684 1.327-1.026.615-.547.615-1.162 0-.56-.315-.89-.314-.328-.902-.328-.67 0-1.012.424-.41.464-.424 1.382h-2.162q0-1.505.643-2.38.89-1.286 3.009-1.286 1.629 0 2.545.848.93.848.93 2.148 0 .888-.411 1.504-.41.615-1.149 1.19-.245.192-1.19.876-.93.67-1.313 1.08v.014h4.076v1.901zm11.791.219q-1.655 0-2.736-.78-1.066-.78-1.231-2.243h2.257q.11.575.561.89.452.3 1.094.3.698 0 1.108-.437.41-.452.41-1.163t-.424-1.122q-.424-.424-1.107-.424-.89 0-1.341.575h-2.161l.957-5.184h5.814v1.846h-4.159l-.328 1.669h.028q.615-.56 1.819-.56 1.382 0 2.298.888.93.876.93 2.325 0 1.545-1.053 2.49-1.04.93-2.736.93"/></svg>