<svg xmlns="http://www.w3.org/2000/svg" width="717" height="369" fill="none"><path fill="url(#a)" fill-opacity=".52" d="M695.107 264.307 20.587 73.143l.395 9.01 8.143-.356s-13.738 29.129 47.447 100.518S462.5 325.5 462.5 325.5s76 31.5 141.673 12.993S641.5 282.5 641.5 282.5z"/><path fill="#E39B68" fill-rule="evenodd" d="M152.642 96.81c4.835-14.294-2.834-29.8-17.127-34.634L44.931 31.539c-14.293-4.834-29.8 2.834-34.634 17.128l-.129.38 142.346 48.144z" clip-rule="evenodd"/><path fill="url(#b)" d="M10.04 49.428c-4.835 14.294 2.834 29.8 17.127 34.634L117.75 114.7c14.294 4.834 29.8-2.834 34.635-17.128l.129-.38L10.168 49.047z"/><path fill="#FFEFD3" d="M90.119 57.094c8.194-24.401 34.617-37.54 59.018-29.347l431.921 145.031c24.402 8.193 37.541 34.617 29.347 59.018l-6.395 19.044L83.724 76.138z"/><path fill="url(#c)" d="M597.616 269.884c-8.194 24.402-34.617 37.541-59.018 29.347L106.677 154.2c-24.402-8.193-37.54-34.617-29.347-59.018l6.394-19.044L604.01 250.84z"/><path fill="#E39B68" fill-rule="evenodd" d="M562.869 238.762c4.566-14.381 19.926-22.339 34.308-17.773l91.141 28.934c14.382 4.566 22.339 19.926 17.773 34.308l-.121.383-143.222-45.469z" clip-rule="evenodd"/><path fill="url(#d)" d="M705.848 284.997c-4.565 14.381-19.925 22.339-34.307 17.773L580.4 273.836c-14.382-4.566-22.34-19.926-17.774-34.308l.122-.383 143.222 45.469z"/><defs><linearGradient id="a" x1="439" x2="360" y1="187.5" y2="338.5" gradientUnits="userSpaceOnUse"><stop stop-color="#542516"/><stop offset="1" stop-color="#8F6455"/></linearGradient><linearGradient id="b" x1="113.376" x2="9.664" y1="82.684" y2="93.715" gradientUnits="userSpaceOnUse"><stop stop-color="#E39B68"/><stop offset="1" stop-color="#BC6F39"/></linearGradient><linearGradient id="c" x1="375.914" x2="231.849" y1="255.074" y2="58.021" gradientUnits="userSpaceOnUse"><stop stop-color="#FFDEC1"/><stop offset="1" stop-color="#FFEFD3"/></linearGradient><linearGradient id="d" x1="602.878" x2="679.933" y1="250.623" y2="320.911" gradientUnits="userSpaceOnUse"><stop stop-color="#E39B68"/><stop offset="1" stop-color="#BC6F39"/></linearGradient></defs></svg>