<svg width="717" height="369" viewBox="0 0 717 369" fill="none" xmlns="http://www.w3.org/2000/svg">
<path d="M695.107 264.307L20.5872 73.1433L20.9821 82.1536L29.1247 81.7966C29.1247 81.7966 15.3871 110.926 76.5721 182.315C137.757 253.704 462.5 325.5 462.5 325.5C462.5 325.5 538.5 357 604.173 338.493C669.846 319.987 641.5 282.5 641.5 282.5L695.107 264.307Z" fill="url(#paint0_linear_319_13)" fill-opacity="0.52"/>
<path fill-rule="evenodd" clip-rule="evenodd" d="M152.642 96.81C157.477 82.5163 149.808 67.01 135.515 62.1757L44.9313 31.539C30.6376 26.7047 15.1313 34.3729 10.297 48.6666L10.1682 49.0472L152.514 97.1906L152.642 96.81Z" fill="#E39B68"/>
<path d="M10.0395 49.4278C5.20515 63.7215 12.8735 79.2278 27.1671 84.0621L117.75 114.699C132.044 119.533 147.55 111.865 152.385 97.5712L152.514 97.1906L10.1682 49.0472L10.0395 49.4278Z" fill="url(#paint1_linear_319_13)"/>
<path d="M90.119 57.0939C98.3125 32.6926 124.736 19.5536 149.137 27.7471L581.058 172.778C605.46 180.971 618.599 207.395 610.405 231.796L604.01 250.84L83.7244 76.1381L90.119 57.0939Z" fill="#FFEFD3"/>
<path d="M597.616 269.884C589.422 294.286 562.999 307.425 538.598 299.231L106.677 154.2C82.2752 146.007 69.1362 119.583 77.3297 95.1822L83.7244 76.1381L604.01 250.84L597.616 269.884Z" fill="url(#paint2_linear_319_13)"/>
<path fill-rule="evenodd" clip-rule="evenodd" d="M562.869 238.762C567.435 224.381 582.795 216.423 597.177 220.989L688.318 249.923C702.7 254.489 710.657 269.849 706.091 284.231L705.97 284.614L562.748 239.145L562.869 238.762Z" fill="#E39B68"/>
<path d="M705.848 284.997C701.283 299.378 685.923 307.336 671.541 302.77L580.4 273.836C566.018 269.27 558.06 253.91 562.626 239.528L562.748 239.145L705.97 284.614L705.848 284.997Z" fill="url(#paint3_linear_319_13)"/>
<defs>
<linearGradient id="paint0_linear_319_13" x1="439" y1="187.5" x2="360" y2="338.5" gradientUnits="userSpaceOnUse">
<stop stop-color="#542516"/>
<stop offset="1" stop-color="#8F6455"/>
</linearGradient>
<linearGradient id="paint1_linear_319_13" x1="113.376" y1="82.6839" x2="9.66437" y2="93.7146" gradientUnits="userSpaceOnUse">
<stop stop-color="#E39B68"/>
<stop offset="1" stop-color="#BC6F39"/>
</linearGradient>
<linearGradient id="paint2_linear_319_13" x1="375.914" y1="255.074" x2="231.849" y2="58.0213" gradientUnits="userSpaceOnUse">
<stop stop-color="#FFDEC1"/>
<stop offset="1" stop-color="#FFEFD3"/>
</linearGradient>
<linearGradient id="paint3_linear_319_13" x1="602.878" y1="250.623" x2="679.933" y2="320.911" gradientUnits="userSpaceOnUse">
<stop stop-color="#E39B68"/>
<stop offset="1" stop-color="#BC6F39"/>
</linearGradient>
</defs>
</svg>
