<?xml version="1.0" encoding="UTF-8"?>
<svg version="1.1" xmlns="http://www.w3.org/2000/svg" width="1124" height="1776">
<path d="M0 0 C370.92 0 741.84 0 1124 0 C1124 586.08 1124 1172.16 1124 1776 C753.08 1776 382.16 1776 0 1776 C0 1189.92 0 603.84 0 0 Z " fill="#57392E" transform="translate(0,0)"/>
<path d="M0 0 C-0.43448591 6.66711138 -1.30365976 13.22351886 -2.375 19.8125 C-3.98433851 29.73625465 -5.42164799 39.67667035 -6.69775391 49.64892578 C-6.94848944 51.59931608 -7.21273692 53.5479638 -7.48046875 55.49609375 C-8.91369934 67.92304607 -6.02012382 80.22544577 -3.60498047 92.36352539 C-1.88009017 101.21092729 -0.66195454 110.11508885 0.56762695 119.04248047 C1.56230496 126.18041154 2.76856727 133.177172 4.28125 140.22265625 C5.40614933 146.1344913 6.15565754 152.09487579 6.91040039 158.06396484 C7.25066079 160.71301419 7.62135945 163.35618932 8 166 C8.10538086 166.85215088 8.21076172 167.70430176 8.31933594 168.58227539 C9.34764764 175.30580211 11.93368455 179.53860992 16.125 184.8125 C17.03596436 186.0044397 17.03596436 186.0044397 17.96533203 187.22045898 C19.96101792 189.82628926 21.98022535 192.41280959 24 195 C26.23999485 197.90471677 28.47365722 200.81411734 30.70263672 203.72729492 C32.13525792 205.5970443 33.57426021 207.46192404 35.02001953 209.3215332 C35.67083496 210.16546631 36.32165039 211.00939941 36.9921875 211.87890625 C37.57339355 212.6272876 38.15459961 213.37566895 38.75341797 214.14672852 C40 216 40 216 40 218 C26.9496237 220.83247717 13.90026931 223.4249646 0.71582031 225.55200195 C-6.27314789 226.68779468 -13.20519085 228.0008616 -20.1394043 229.42993164 C-27.42464439 230.91784871 -34.73912375 232.21459693 -42.0625 233.5 C-49.98978695 234.89288914 -57.88721508 236.34120839 -65.75 238.0625 C-73.82337157 239.82968213 -81.94102226 241.18327723 -90.09863281 242.50024414 C-96.27331186 243.50947186 -102.38931516 244.65851832 -108.5 246 C-115.61428374 247.56046408 -122.74807661 248.83493131 -129.9375 250 C-138.04418256 251.31385487 -146.09522348 252.77209114 -154.13818359 254.4296875 C-161.42383413 255.91767312 -168.73871383 257.21452498 -176.0625 258.5 C-183.98982267 259.89289542 -191.88704864 261.34189321 -199.75 263.0625 C-206.53390081 264.54185075 -213.33387646 265.76380068 -220.1875 266.875 C-229.92076997 268.45463706 -239.62156634 270.18112237 -249.3125 272 C-250.00378998 272.12967163 -250.69507996 272.25934326 -251.40731812 272.39294434 C-260.02598535 274.014264 -268.61647985 275.73259511 -277.18481445 277.6015625 C-284.44762272 279.15597024 -291.76886821 280.31680685 -299.09960938 281.50048828 C-305.27400644 282.50949918 -311.38956662 283.65890863 -317.5 285 C-324.28516025 286.48499183 -331.07967805 287.71245362 -337.9375 288.8125 C-348.25339692 290.47337634 -358.49977875 292.41810996 -368.75 294.4375 C-381.0875857 296.86784619 -393.4343154 299.18809715 -405.81933594 301.36694336 C-412.52263914 302.54863433 -419.19252581 303.81927566 -425.859375 305.19140625 C-431.80275779 306.38039204 -437.78094668 307.387214 -443.75 308.4375 C-451.78105474 309.8518568 -459.78374893 311.31855335 -467.75 313.0625 C-474.53388614 314.54191381 -481.33387996 315.76380125 -488.1875 316.875 C-497.92076997 318.45463706 -507.62156634 320.18112237 -517.3125 322 C-518.00378998 322.12967163 -518.69507996 322.25934326 -519.40731812 322.39294434 C-528.02598535 324.014264 -536.61647985 325.73259511 -545.18481445 327.6015625 C-552.44762272 329.15597024 -559.76886821 330.31680685 -567.09960938 331.50048828 C-573.27398773 332.50949612 -579.38964265 333.65859022 -585.5 335 C-592.61428374 336.56046408 -599.74807661 337.83493131 -606.9375 339 C-615.04418256 340.31385487 -623.09522348 341.77209114 -631.13818359 343.4296875 C-638.42383413 344.91767312 -645.73871383 346.21452498 -653.0625 347.5 C-660.98980404 348.89289214 -668.88713945 350.34151073 -676.75 352.0625 C-690.05107681 354.96902614 -703.52199752 357.09577036 -717 359 C-717.00546844 358.07849152 -717.00546844 358.07849152 -717.01104736 357.1383667 C-716.89297829 318.28185068 -716.89297829 318.28185068 -721.48168945 279.79125977 C-722.45503094 274.54952013 -723.20720088 269.27150686 -724 264 C-725.39194885 254.89088453 -726.80702306 245.79711512 -728.5625 236.75 C-729.53776849 231.67658256 -730.35129252 226.62532522 -731 221.5 C-732.0028524 213.59418025 -733.41603101 205.8089671 -735 198 C-735.11263184 197.33250732 -735.22526367 196.66501465 -735.34130859 195.97729492 C-736.6688005 188.87335375 -739.62380921 182.60047871 -742.625 176.0625 C-743.15899414 174.87914062 -743.69298828 173.69578125 -744.24316406 172.4765625 C-745.8211634 168.98086223 -747.40919415 165.48988766 -749 162 C-750.23748275 159.27834677 -751.47300249 156.55592241 -752.70068359 153.82983398 C-753.3828988 152.31508765 -754.07044217 150.80272586 -754.76416016 149.29321289 C-756.09275919 146.3483542 -757 144.27048819 -757 141 C-743.92908506 138.16306508 -730.86089631 135.57192523 -717.65429688 133.45019531 C-711.56121527 132.45992011 -705.52916998 131.3231 -699.5 130 C-692.46827437 128.45688938 -685.42006011 127.20475587 -678.3125 126.0625 C-670.22297111 124.75773728 -662.20116771 123.2726653 -654.1875 121.5625 C-637.14279166 117.92894357 -620.01476081 114.7901658 -602.8125 112 C-593.88743405 110.54952096 -585.05290201 108.81253525 -576.21020508 106.92797852 C-560.15774518 103.521728 -544.00938993 100.62709703 -527.8125 98 C-518.88743405 96.54952096 -510.05290201 94.81253525 -501.21020508 92.92797852 C-484.17960481 89.31417158 -467.04218264 86.3051639 -449.85864258 83.52148438 C-441.73441591 82.17968357 -433.6974507 80.51264162 -425.64770508 78.78515625 C-419.61763713 77.50453879 -413.59770027 76.401704 -407.5 75.5 C-400.68933628 74.4883877 -393.98046255 73.20068909 -387.25 71.75 C-376.29257923 69.39377141 -365.28439362 67.39231493 -354.25 65.4375 C-343.39137482 63.51352527 -332.54641326 61.57526713 -321.74511719 59.34741211 C-314.70994934 57.90825945 -307.6386567 56.70495681 -300.56030273 55.49926758 C-294.37055488 54.43654956 -288.21367069 53.26594503 -282.0625 52 C-274.81627007 50.51004648 -267.55323282 49.24008009 -260.25 48.0625 C-252.18212744 46.7561317 -244.18071891 45.26703347 -236.1875 43.5625 C-219.14275187 39.92923321 -202.01483603 36.78968242 -184.8125 34 C-175.79416829 32.53670415 -166.87064212 30.77045633 -157.93774414 28.85766602 C-150.10867786 27.19412534 -142.254019 25.78384571 -134.36303711 24.44921875 C-128.21808885 23.40389788 -122.10613713 22.25152691 -116 21 C-107.88013739 19.33690539 -99.73460705 17.89151561 -91.56420898 16.5 C-85.37317669 15.43693015 -79.21497059 14.26621256 -73.0625 13 C-65.81627986 11.5100485 -58.5532685 10.23983827 -51.25 9.0625 C-40.92348769 7.39348434 -30.7061703 5.3464105 -20.48046875 3.1484375 C-5.66476075 0 -5.66476075 0 0 0 Z " fill="#FDEEDC" transform="translate(810,38)"/>
<path d="M0 0 C0.33 0 0.66 0 1 0 C1 20.46 1 40.92 1 62 C-19.46 62 -39.92 62 -61 62 C-61 61.67 -61 61.34 -61 61 C-60.07960938 60.79246094 -59.15921875 60.58492187 -58.2109375 60.37109375 C-37.5796464 55.34983247 -21.60780298 44.83166321 -9.875 26.9375 C-4.8680549 18.60555447 -1.72438377 9.58394349 0 0 Z " fill="#000000" transform="translate(1123,1714)"/>
<path d="M0 0 C0.33 0 0.66 0 1 0 C1.20753906 0.92039062 1.41507812 1.84078125 1.62890625 2.7890625 C6.65016753 23.4203536 17.16833679 39.39219702 35.0625 51.125 C43.39444553 56.1319451 52.41605651 59.27561623 62 61 C62 61.33 62 61.66 62 62 C41.54 62 21.08 62 0 62 C0 41.54 0 21.08 0 0 Z " fill="#000000" transform="translate(0,1714)"/>
<path d="M0 0 C20.46 0 40.92 0 62 0 C62 20.46 62 40.92 62 62 C61.67 62 61.34 62 61 62 C60.79246094 61.07960937 60.58492187 60.15921875 60.37109375 59.2109375 C55.34983247 38.5796464 44.83166321 22.60780298 26.9375 10.875 C18.60555447 5.8680549 9.58394349 2.72438377 0 1 C0 0.67 0 0.34 0 0 Z " fill="#000000" transform="translate(1062,0)"/>
<path d="M0 0 C20.46 0 40.92 0 62 0 C62 0.33 62 0.66 62 1 C61.07960937 1.20753906 60.15921875 1.41507812 59.2109375 1.62890625 C38.5796464 6.65016753 22.60780298 17.16833679 10.875 35.0625 C5.8680549 43.39444553 2.72438377 52.41605651 1 62 C0.67 62 0.34 62 0 62 C0 41.54 0 21.08 0 0 Z " fill="#000000" transform="translate(0,0)"/>
</svg>
