<svg xmlns="http://www.w3.org/2000/svg" width="1124" height="1776"><path fill="#57392E" d="M0 0h1124v1776H0z"/><path fill="#FDEEDC" d="M810 38c-.434 6.667-1.304 13.224-2.375 19.813a900 900 0 0 0-4.323 29.836c-.25 1.95-.515 3.899-.782 5.847-1.434 12.427 1.46 24.73 3.875 36.868 1.725 8.847 2.943 17.751 4.173 26.678.994 7.138 2.2 14.135 3.713 21.18 1.125 5.912 1.875 11.873 2.63 17.842.34 2.649.71 5.292 1.089 7.936.105.852.21 1.704.32 2.582 1.028 6.724 3.614 10.957 7.805 16.23l1.84 2.408A1061 1061 0 0 0 834 233q3.36 4.358 6.703 8.727 2.148 2.805 4.317 5.595l1.972 2.557 1.761 2.268C850 254 850 254 850 256c-13.05 2.832-26.1 5.425-39.284 7.552-6.99 1.136-13.921 2.449-20.855 3.878-7.286 1.488-14.6 2.785-21.923 4.07-7.928 1.393-15.825 2.841-23.688 4.563-8.073 1.767-16.191 3.12-24.349 4.437A346 346 0 0 0 701.5 284c-7.114 1.56-14.248 2.835-21.437 4a577 577 0 0 0-24.201 4.43c-7.286 1.488-14.6 2.785-21.924 4.07-7.928 1.393-15.825 2.842-23.688 4.563-6.784 1.479-13.584 2.7-20.437 3.812-9.734 1.58-19.435 3.306-29.125 5.125l-2.095.393a912 912 0 0 0-25.778 5.209c-7.263 1.554-14.584 2.715-21.915 3.898a346 346 0 0 0-18.4 3.5c-6.785 1.485-13.58 2.712-20.437 3.813-10.316 1.66-20.563 3.605-30.813 5.625a1852 1852 0 0 1-37.07 6.929 716 716 0 0 0-20.04 3.824c-5.943 1.19-11.92 2.196-17.89 3.247-8.031 1.414-16.034 2.88-24 4.625-6.784 1.479-13.584 2.7-20.437 3.812-9.734 1.58-19.435 3.306-29.125 5.125l-2.095.393a912 912 0 0 0-25.778 5.209c-7.263 1.554-14.584 2.715-21.915 3.898a346 346 0 0 0-18.4 3.5c-7.114 1.56-14.248 2.835-21.437 4a577 577 0 0 0-24.201 4.43c-7.286 1.488-14.6 2.785-21.924 4.07-7.928 1.393-15.825 2.842-23.688 4.563-13.301 2.906-26.772 5.033-40.25 6.937l-.011-1.862c.118-38.856.118-38.856-4.47-77.347-.974-5.241-1.726-10.52-2.519-15.791-1.392-9.11-2.807-18.203-4.562-27.25A241 241 0 0 1 79 259.5c-1.003-7.906-2.416-15.691-4-23.5l-.341-2.023c-1.328-7.104-4.283-13.377-7.284-19.915l-1.618-3.585A3138 3138 0 0 0 61 200a2493 2493 0 0 1-3.7-8.17 655 655 0 0 0-2.064-4.537C53.907 184.348 53 182.27 53 179c13.07-2.837 26.14-5.428 39.346-7.55A336 336 0 0 0 110.5 168c7.032-1.543 14.08-2.795 21.188-3.937a487 487 0 0 0 24.125-4.5c17.044-3.634 34.172-6.773 51.375-9.563 8.925-1.45 17.76-3.187 26.602-5.072 16.052-3.406 32.2-6.3 48.398-8.928 8.925-1.45 17.76-3.187 26.602-5.072 17.03-3.614 34.168-6.623 51.351-9.407 8.125-1.341 16.162-3.008 24.211-4.736 6.03-1.28 12.05-2.383 18.148-3.285 6.81-1.012 13.52-2.3 20.25-3.75 10.957-2.356 21.966-4.358 33-6.312 10.859-1.924 21.704-3.863 32.505-6.09 7.035-1.44 14.106-2.643 21.185-3.849A571 571 0 0 0 527.938 90c7.246-1.49 14.509-2.76 21.812-3.937a493 493 0 0 0 24.063-4.5c17.044-3.634 34.172-6.773 51.375-9.563 9.018-1.463 17.941-3.23 26.874-5.142 7.83-1.664 15.684-3.074 23.575-4.409A555 555 0 0 0 694 59c8.12-1.663 16.265-3.108 24.436-4.5a572 572 0 0 0 18.501-3.5c7.247-1.49 14.51-2.76 21.813-3.937 10.327-1.67 20.544-3.717 30.77-5.915C804.335 38 804.335 38 810 38"/><path d="M1123 1714h1v62h-62v-1l2.79-.629c20.63-5.021 36.602-15.54 48.335-33.434 5.007-8.331 8.15-17.353 9.875-26.937M0 1714h1l.629 2.79c5.021 20.63 15.54 36.602 33.434 48.335 8.331 5.007 17.353 8.15 26.937 9.875v1H0zM1062 0h62v62h-1l-.629-2.79c-5.021-20.63-15.54-36.602-33.434-48.335-8.331-5.007-17.353-8.15-26.937-9.875zM0 0h62v1l-2.79.629C38.58 6.65 22.609 17.169 10.876 35.063 5.868 43.394 2.725 52.416 1 62H0z"/></svg>