<svg xmlns="http://www.w3.org/2000/svg" width="481" height="521" fill="none"><path fill="#E4AD9A" fill-opacity=".42" d="M124.631 65.29s26.115 56.311 13.057 64.472c-3.474 2.172-8.797 3.881-14.739 5.789-16.391 5.263-37.492 12.039-37.492 34.201v65.289s148.134 43.027 227.828 30.928c12.135-1.843 22.684-4.963 30.881-9.709 62.024-35.909 136.291-34.277 136.291-34.277v-52.231c0-24.023-28.187-29.689-48.404-33.753-9.316-1.872-16.94-3.405-19.334-6.237-7.587-8.977 18.771-64.473 18.771-64.473s-90.346 14.69-158.084 14.69c-67.737 0-148.775-14.69-148.775-14.69"/><path fill="#E39B68" d="M480.457 276.5c-42.162 19.295-166.663 25.418-266 20.539-60.257-2.96-111.255-9.967-129-20.539v98c.013 16.782 46.716 27.71 108 32.87 116.942 9.846 286.976-1.311 287-32.87z"/><path fill="#FFF6EC" d="M480.457 374.5c-.024 31.559-170.058 42.716-287 32.87v62.888c107.867 8.267 260.906-1.343 284.027-25.574 1.947-2.04 2.973-4.184 2.973-6.43 0-3.38-.003-6.089-.006-9.257v-.005c-.008-8.282-.02-19.71.006-54.492"/><path fill="#F7E7D5" fill-rule="evenodd" d="M480.457 374.5v63.754c0-3.38-.003-6.089-.006-9.257v-.005c-.008-8.282-.02-19.71.006-54.492m-287 95.758c-61.292-4.697-108-15.166-108-32.004V374.5c.013 16.782 46.716 27.71 108 32.87zm-108-193.758c17.745 10.572 68.743 17.579 129 20.539l98.828-31.07c-79.694 12.099-227.828-30.928-227.828-30.928z" clip-rule="evenodd"/><path fill="#FFF6EC" d="M480.457 221.983s-74.267-1.632-136.291 34.277c-8.197 4.746-18.746 7.866-30.881 9.709l-98.828 31.07c99.337 4.879 223.838-1.244 266-20.539z"/><path fill="url(#a)" fill-opacity=".26" d="M477.484 444.684c-23.121 24.231-176.16 33.841-284.027 25.574-61.292-4.697-108-15.166-108-32.004 0 0-98.5 11.246-84 56.246 14.151 43.921 426.61 35.563 476.027-49.816"/><path fill="#A8B4BA" d="M441.278 35.91c0 19.831-73.077 35.908-163.223 35.908-90.145 0-163.223-16.077-163.223-35.909S187.91 0 278.055 0s163.223 16.077 163.223 35.91"/><path fill="#8B979D" d="M441.278 35.91c0 19.831-73.077 35.908-163.223 35.908-90.145 0-163.223-16.077-163.223-35.909 0 0-.005 12.242 0 45.703s326.446 33.46 326.446 0z"/><circle cx="163.957" cy="137.5" r="11.5" fill="#fff" fill-opacity=".6"/><path stroke="#fff" stroke-linecap="round" stroke-opacity=".61" stroke-width="17" d="M130.457 169v55"/><path fill="#D88F5B" d="m225.969 342.349-1.092 19.339q-.536 9.476-5.378 13.368-4.773 3.832-15.611 3.219-10.318-.582-14.937-5.27-4.552-4.684-4.051-13.576l1.093-19.339q.194-3.44 2.327-5.467 2.202-2.09 5.317-1.913 3.829.216 5.695 1.754 1.93 1.54 1.685 5.889l-1.195 21.156q-.053 2.08.462 3.347.58 1.27 1.588 1.847 1.013.513 2.635.605 1.623.091 2.683-.239 1.06-.332 1.562-1.149.567-.815.745-1.65.242-.833.319-2.196l1.199-21.221q.125-2.206.728-3.67.669-1.46 1.812-2.111 1.209-.648 2.391-.841 1.248-.19 2.935-.095 3.764.213 5.544 2.136t1.544 6.077M283.26 344.693q0-2.015-2.665-2.015-2.73 0-4.68 3.055t-1.95 10.205q0 6.63 2.21 9.685 2.275 2.99 5.33 2.99.975 0 1.755-.39a3.25 3.25 0 0 0 1.365-1.17q.52-.78.52-1.885-1.56 0-2.73-.585-1.105-.585-1.625-1.43a3.87 3.87 0 0 1-.52-1.95q0-2.34 1.235-3.51t4.225-1.17h7.865q3.77 0 5.85 1.625t2.08 5.72q0 5.98-5.72 10.465-5.72 4.42-13.585 4.42-7.215 0-12.87-2.6-5.59-2.6-8.905-7.735-3.25-5.2-3.25-12.285 0-10.53 6.37-16.64t16.9-6.11q4.16 0 7.475.65 3.315.585 5.46 1.625 2.21 1.04 3.64 2.535 1.495 1.43 2.08 3.055.65 1.625.65 3.38 0 1.235-.39 2.405-.39 1.105-1.43 2.275-.975 1.105-3.055 1.82t-5.005.715q-4.29 0-5.46-1.235-1.17-1.3-1.17-5.915M430.665 335.269q-.322-3.104-2.707-4.032-2.383-.928-7.75-.37l1.164 11.185q5.043-.525 7.307-2.002 2.322-1.549 1.986-4.781m-7.632 22.751q1.01 9.698-6.555 10.485-3.814.397-5.833-1.419-1.96-1.887-2.499-7.059l-2.838-27.283q-.39-3.75 1.412-5.898 1.86-2.22 5.157-2.562l13.577-1.413q7.953-.827 13.256 2.411 5.296 3.174 5.902 8.993.457 4.397-1.155 7.113-1.555 2.645-5.507 4.232 3.124-.129 6.07 2.44 2.94 2.505 3.378 6.707.444 4.267-.155 6.682-.54 2.343-1.946 3.274-1.407.93-4.122 1.213-3.815.396-5.786-.967-1.914-1.434-2.25-4.667-.417-4.009-1.415-6.061-1.005-2.118-2.3-2.636-1.295-.52-3.494-.29l-3.549.434zM357.281 341.475q-2.79.171-4.053 1.877-1.198 1.7-.943 5.854l.47 7.655 10.77-.661-.478-7.785q-.168-2.726-.916-4.307-.752-1.647-1.956-2.16-1.142-.58-2.894-.473m6.794 23.678-10.77.661.211 3.439q.204 3.309-1.453 4.973-1.656 1.664-5.938 1.928-1.816.111-3.016-.336t-2.184-1.624q-.92-1.181-1.516-3.489-.537-2.376-1-5.669-.401-3.363-.716-8.487-.275-4.477.406-8.231.742-3.822 2.14-6.513 1.463-2.695 3.354-4.765 1.888-2.135 4.156-3.381 2.332-1.25 4.507-1.904 2.235-.724 4.505-.863a19.1 19.1 0 0 1 5.433.448q2.704.55 5.54 2.199a18.9 18.9 0 0 1 5.015 4.251q2.24 2.532 3.8 6.735 1.56 4.202 1.887 9.522.526 8.563.132 12.756-.333 4.123-1.726 5.837-1.328 1.71-4.376 1.896-4.282.263-6.13-1.186-1.847-1.45-2.05-4.758zM136.435 323.722q7.612 1.371 12.421 5.474t4.176 7.621q-.173.959-.748 1.582a2.5 2.5 0 0 1-1.196.775q-.621.153-1.325.026-1.152-.207-3.247-1.774a59 59 0 0 0-4.692-3.288q-2.596-1.723-4.963-2.149-3.774-.68-4.327 2.391-.172.958.242 1.959.49.946 1.66 2.148a37 37 0 0 0 2.335 2.072q1.153.933 3.173 2.552a85 85 0 0 1 3.405 2.727q4.42 3.702 5.941 6.618 1.523 2.916.924 6.243-2.386 13.241-20.233 10.027a33.5 33.5 0 0 1-6.718-1.936q-3.137-1.291-5.424-2.892-2.223-1.59-3.889-3.343-1.601-1.741-2.296-3.385t-.464-2.924q.254-1.407 1.322-2.206 1.144-.85 2.935-.528 1.343.243 6.15 2.891 4.818 2.585 7.953 3.15 2.878.518 3.235-1.465a2.05 2.05 0 0 0-.071-1.07q-.1-.546-.595-1.097a5.4 5.4 0 0 0-1.054-1.115q-.56-.562-1.659-1.422a121 121 0 0 0-2.137-1.705 206 206 0 0 0-2.771-2.216 150 150 0 0 1-3.342-2.716 15.8 15.8 0 0 1-3.495-4.064q-1.305-2.282-1.728-4.34-.41-2.12-.111-3.784.968-5.374 6.377-7.9t14.236-.937"/><defs><linearGradient id="a" x1="170.456" x2="7.956" y1="448" y2="512" gradientUnits="userSpaceOnUse"><stop stop-color="#3D1305"/><stop offset="1" stop-color="#6D4234" stop-opacity="0"/></linearGradient></defs></svg>